<?xml version="1.0" encoding="UTF-8"?>
<svg width="80px" height="81px" viewBox="0 0 80 81" version="1.1" xmlns="http://www.w3.org/2000/svg" xmlns:xlink="http://www.w3.org/1999/xlink">
    <title>Group 3</title>
    <defs>
        <polygon id="path-1" points="0 0.140452489 79.4977123 0.140452489 79.4977123 79.638009 0 79.638009"></polygon>
        <polygon id="path-3" points="0 79.8595475 212.286697 79.8595475 212.286697 0.36199095 0 0.36199095"></polygon>
    </defs>
    <g id="Symbols" stroke="none" stroke-width="1" fill="none" fill-rule="evenodd">
        <g id="components/logo/color">
            <g id="Group-29">
                <g id="Group-3" transform="translate(0.000000, 0.221538)">
                    <mask id="mask-2" fill="white">
                        <use xlink:href="#path-1"></use>
                    </mask>
                    <g id="Clip-2"></g>
                    <path d="M60.0201267,28.1688688 C57.7786787,30.35819 54.1906244,30.3111312 52.006733,28.0642534 C49.8228416,25.8173756 49.8699005,22.2209955 52.1117104,20.0320362 C54.3538824,17.8434389 57.9415747,17.8897738 60.1254661,20.1373756 C62.3089955,22.3842534 62.2619367,25.9799095 60.0201267,28.1688688 M43.7649231,44.0048869 C41.5227511,46.1938462 37.9350588,46.1467873 35.7511674,43.8999095 C33.567276,41.6530317 33.6143348,38.0566516 35.8561448,35.8680543 C38.0979548,33.679095 41.686009,33.7261538 43.8699005,35.9730317 C46.0537919,38.2199095 46.006733,41.8155656 43.7649231,44.0048869 M68.2206697,12.1525792 C52.9022986,-3.5719457 27.7366878,-3.90135747 12.0121629,11.4173756 C-3.71272398,26.7357466 -4.04177376,51.9013575 11.2769593,67.6258824 C26.5953303,83.3504072 51.7609412,83.679819 67.4854661,68.361086 C83.209991,53.0427149 83.5394027,27.8771041 68.2206697,12.1525792" id="Fill-1" fill="#E50654" mask="url(#mask-2)"></path>
                </g>
                <mask id="mask-4" fill="white">
                    <use xlink:href="#path-3"></use>
                </mask>
                <g id="Clip-24"></g>
            </g>
        </g>
    </g>
</svg>
