<svg
  xmlns="http://www.w3.org/2000/svg"
  xmlns:xlink="http://www.w3.org/1999/xlink"
  width="97.29"
  height="104"
  viewBox="0 0 97.29 104"
>
  <defs>
    <clipPath id="clip-path">
      <path
        id="Clip_2"
        data-name="Clip 2"
        d="M0,0H49.912V49.912H0Z"
        fill="none"
      />
    </clipPath>
  </defs>
  <g id="Group_1" data-name="Group 1" transform="translate(-1044 -338)">
    <g id="pin" transform="translate(1044 338)">
      <path
        id="Oval"
        d="M48.645,104s2.884-6.773,4.3-6.9a48.647,48.647,0,1,0-8.373.02C45.916,97.234,48.645,104,48.645,104Z"
        fill="#e91a3c"
      />
    </g>
    <g id="Group_3" data-name="Group 3" transform="translate(1068 361)">
      <path
        id="Clip_2-2"
        data-name="Clip 2"
        d="M0,0H49.912V49.912H0Z"
        fill="none"
      />
      <g id="Group_3-2" data-name="Group 3" clipPath="url(#clip-path)">
        <path
          id="Fill_1"
          data-name="Fill 1"
          d="M24.96,49.912h0a24.983,24.983,0,1,1,17.411-7.08A24.879,24.879,0,0,1,24.959,49.912Zm.035-28.492a3.535,3.535,0,0,0-2.483,1.012,3.577,3.577,0,0,0-.066,5.043,3.553,3.553,0,0,0,5.032.066,3.577,3.577,0,0,0,.066-5.043A3.528,3.528,0,0,0,24.994,21.42ZM35.2,11.477a3.537,3.537,0,0,0-2.483,1.011,3.577,3.577,0,0,0-.066,5.044,3.552,3.552,0,0,0,5.031.066,3.576,3.576,0,0,0,.067-5.043A3.527,3.527,0,0,0,35.2,11.477Z"
          transform="translate(0 0)"
          fill="#fff"
        />
      </g>
    </g>
  </g>
</svg>
